<svg width="260" height="43" viewBox="0 0 260 43" fill="none" xmlns="http://www.w3.org/2000/svg">
<path d="M26.3735 42.1976L32.1217 28.4833L37.8698 14.769H38.086L49.5823 42.1976H45.2217L42.8789 42.1975H33.8693L30.1215 42.1976H26.3735ZM31.8671 39.1701H43.8799L37.8338 23.2338L31.8671 39.1701Z" fill="url(#paint0_linear_761_9438)"/>
<rect x="73.4946" y="41.1978" width="3.16483" height="14.0659" transform="rotate(-90 73.4946 41.1978)" fill="url(#paint1_linear_761_9438)"/>
<path d="M17.1034 42L10.7089 31.0214H6.47157V42H2.96614V15.1507H11.6334C13.6622 15.1507 15.37 15.4974 16.7567 16.1908C18.1692 16.8841 19.2221 17.8215 19.9155 19.0028C20.6089 20.1841 20.9556 21.5324 20.9556 23.0475C20.9556 24.8966 20.4163 26.5273 19.3377 27.9397C18.2848 29.3522 16.6925 30.2895 14.561 30.7518L21.3022 42H17.1034ZM6.47157 28.2094H11.6334C13.5338 28.2094 14.9591 27.7471 15.9093 26.8226C16.8595 25.8724 17.3346 24.6141 17.3346 23.0475C17.3346 21.4553 16.8595 20.2227 15.9093 19.3495C14.9848 18.4764 13.5595 18.0398 11.6334 18.0398H6.47157V28.2094ZM58.5369 15.1507V42H55.0315V15.1507H58.5369ZM88.3175 42H84.812L70.7133 20.6207V42H67.2078V15.1122H70.7133L84.812 36.4529V15.1122H88.3175V42ZM112.167 15.1507V18.0013H100.495V27.0538H109.971V29.9043H100.495V42H96.9896V15.1507H112.167ZM131.27 42.2696C128.779 42.2696 126.506 41.6918 124.452 40.5362C122.397 39.3549 120.766 37.7241 119.559 35.644C118.378 33.5382 117.787 31.1755 117.787 28.5561C117.787 25.9366 118.378 23.5868 119.559 21.5067C120.766 19.4009 122.397 17.7701 124.452 16.6145C126.506 15.4332 128.779 14.8425 131.27 14.8425C133.787 14.8425 136.072 15.4332 138.127 16.6145C140.181 17.7701 141.799 19.388 142.98 21.4682C144.162 23.5483 144.752 25.911 144.752 28.5561C144.752 31.2012 144.162 33.5638 142.98 35.644C141.799 37.7241 140.181 39.3549 138.127 40.5362C136.072 41.6918 133.787 42.2696 131.27 42.2696ZM131.27 39.2265C133.145 39.2265 134.827 38.7899 136.316 37.9167C137.831 37.0436 139.013 35.7981 139.86 34.1802C140.733 32.5623 141.17 30.6876 141.17 28.5561C141.17 26.3989 140.733 24.5242 139.86 22.932C139.013 21.3141 137.844 20.0686 136.355 19.1954C134.865 18.3223 133.17 17.8857 131.27 17.8857C129.369 17.8857 127.675 18.3223 126.185 19.1954C124.696 20.0686 123.514 21.3141 122.641 22.932C121.794 24.5242 121.37 26.3989 121.37 28.5561C121.37 30.6876 121.794 32.5623 122.641 34.1802C123.514 35.7981 124.696 37.0436 126.185 37.9167C127.7 38.7899 129.395 39.2265 131.27 39.2265ZM166.214 42L159.819 31.0214H155.582V42H152.076V15.1507H160.744C162.773 15.1507 164.48 15.4974 165.867 16.1908C167.28 16.8841 168.332 17.8215 169.026 19.0028C169.719 20.1841 170.066 21.5324 170.066 23.0475C170.066 24.8966 169.527 26.5273 168.448 27.9397C167.395 29.3522 165.803 30.2895 163.671 30.7518L170.413 42H166.214ZM155.582 28.2094H160.744C162.644 28.2094 164.069 27.7471 165.02 26.8226C165.97 25.8724 166.445 24.6141 166.445 23.0475C166.445 21.4553 165.97 20.2227 165.02 19.3495C164.095 18.4764 162.67 18.0398 160.744 18.0398H155.582V28.2094ZM181.715 18.0013V26.9767H191.499V29.8658H181.715V39.1109H192.655V42H178.209V15.1122H192.655V18.0013H181.715ZM209.169 42.2696C207.397 42.2696 205.804 41.9615 204.392 41.3451C203.005 40.7031 201.914 39.83 201.118 38.7257C200.322 37.5957 199.911 36.2989 199.885 34.835H203.621C203.75 36.0934 204.264 37.1592 205.162 38.0323C206.087 38.8798 207.422 39.3035 209.169 39.3035C210.838 39.3035 212.148 38.8926 213.098 38.0708C214.074 37.2234 214.562 36.1448 214.562 34.835C214.562 33.8078 214.279 32.9732 213.714 32.3312C213.149 31.6891 212.443 31.2012 211.595 30.8674C210.748 30.5335 209.605 30.174 208.167 29.7888C206.395 29.3265 204.97 28.8643 203.891 28.402C202.838 27.9397 201.927 27.2207 201.156 26.2448C200.411 25.2433 200.039 23.9079 200.039 22.2386C200.039 20.7748 200.411 19.4779 201.156 18.348C201.901 17.218 202.941 16.3448 204.276 15.7285C205.637 15.1122 207.191 14.804 208.937 14.804C211.454 14.804 213.509 15.4332 215.101 16.6915C216.719 17.9499 217.63 19.6192 217.836 21.6993H213.984C213.855 20.6721 213.316 19.7732 212.366 19.0028C211.416 18.2067 210.157 17.8087 208.591 17.8087C207.127 17.8087 205.933 18.1939 205.008 18.9643C204.084 19.709 203.621 20.762 203.621 22.123C203.621 23.0989 203.891 23.895 204.43 24.5114C204.995 25.1277 205.676 25.6028 206.472 25.9366C207.294 26.2448 208.437 26.6043 209.9 27.0152C211.672 27.5032 213.098 27.9911 214.176 28.479C215.255 28.9413 216.179 29.6732 216.95 30.6748C217.72 31.6506 218.105 32.986 218.105 34.681C218.105 35.9907 217.759 37.2234 217.065 38.379C216.372 39.5346 215.345 40.472 213.984 41.1911C212.623 41.9101 211.018 42.2696 209.169 42.2696ZM242.486 15.1507V18.0013H235.167V42H231.662V18.0013H224.304V15.1507H242.486Z" fill="url(#paint2_linear_761_9438)"/>
<defs>
<linearGradient id="paint0_linear_761_9438" x1="26.3735" y1="14.769" x2="53.4238" y2="37.6577" gradientUnits="userSpaceOnUse">
<stop stop-color="#F9F5D0"/>
<stop offset="1" stop-color="#BB8197"/>
</linearGradient>
<linearGradient id="paint1_linear_761_9438" x1="73.4946" y1="41.1978" x2="79.5193" y2="42.5533" gradientUnits="userSpaceOnUse">
<stop stop-color="#F9F5D0"/>
<stop offset="1" stop-color="#BB8197"/>
</linearGradient>
<linearGradient id="paint2_linear_761_9438" x1="0" y1="0" x2="13.5699" y2="82.877" gradientUnits="userSpaceOnUse">
<stop stop-color="#F9F5D0"/>
<stop offset="1" stop-color="#BB8197"/>
</linearGradient>
</defs>
</svg>
