<svg width="236" height="50" viewBox="0 0 236 50" fill="none" xmlns="http://www.w3.org/2000/svg">
<path d="M11.9272 15.808H5.25522L4.15122 19H0.623222L6.64722 2.224H10.5592L16.5832 19H13.0312L11.9272 15.808ZM11.0152 13.12L8.59122 6.112L6.16722 13.12H11.0152ZM23.4429 19.216C22.3549 19.216 21.3789 19.024 20.5149 18.64C19.6509 18.24 18.9629 17.704 18.4509 17.032C17.9549 16.36 17.6829 15.616 17.6349 14.8H21.0189C21.0829 15.312 21.3309 15.736 21.7629 16.072C22.2109 16.408 22.7629 16.576 23.4189 16.576C24.0589 16.576 24.5549 16.448 24.9069 16.192C25.2749 15.936 25.4589 15.608 25.4589 15.208C25.4589 14.776 25.2349 14.456 24.7869 14.248C24.3549 14.024 23.6589 13.784 22.6989 13.528C21.7069 13.288 20.8909 13.04 20.2509 12.784C19.6269 12.528 19.0829 12.136 18.6189 11.608C18.1709 11.08 17.9469 10.368 17.9469 9.472C17.9469 8.736 18.1549 8.064 18.5709 7.456C19.0029 6.848 19.6109 6.368 20.3949 6.016C21.1949 5.664 22.1309 5.488 23.2029 5.488C24.7869 5.488 26.0509 5.888 26.9949 6.688C27.9389 7.472 28.4589 8.536 28.5549 9.88H25.3389C25.2909 9.352 25.0669 8.936 24.6669 8.632C24.2829 8.312 23.7629 8.152 23.1069 8.152C22.4989 8.152 22.0269 8.264 21.6909 8.488C21.3709 8.712 21.2109 9.024 21.2109 9.424C21.2109 9.872 21.4349 10.216 21.8829 10.456C22.3309 10.68 23.0269 10.912 23.9709 11.152C24.9309 11.392 25.7229 11.64 26.3469 11.896C26.9709 12.152 27.5069 12.552 27.9549 13.096C28.4189 13.624 28.6589 14.328 28.6749 15.208C28.6749 15.976 28.4589 16.664 28.0269 17.272C27.6109 17.88 27.0029 18.36 26.2029 18.712C25.4189 19.048 24.4989 19.216 23.4429 19.216ZM38.825 19L34.313 13.336V19H30.953V1.24H34.313V11.344L38.777 5.704H43.145L37.289 12.376L43.193 19H38.825ZM48.9114 10.6C48.9114 8.952 49.2794 7.48 50.0154 6.184C50.7674 4.872 51.7834 3.856 53.0634 3.136C54.3594 2.4 55.8074 2.032 57.4074 2.032C59.2794 2.032 60.9194 2.512 62.3274 3.472C63.7354 4.432 64.7194 5.76 65.2794 7.456H61.4154C61.0314 6.656 60.4874 6.056 59.7834 5.656C59.0954 5.256 58.2954 5.056 57.3834 5.056C56.4074 5.056 55.5354 5.288 54.7674 5.752C54.0154 6.2 53.4234 6.84 52.9914 7.672C52.5754 8.504 52.3674 9.48 52.3674 10.6C52.3674 11.704 52.5754 12.68 52.9914 13.528C53.4234 14.36 54.0154 15.008 54.7674 15.472C55.5354 15.92 56.4074 16.144 57.3834 16.144C58.2954 16.144 59.0954 15.944 59.7834 15.544C60.4874 15.128 61.0314 14.52 61.4154 13.72H65.2794C64.7194 15.432 63.7354 16.768 62.3274 17.728C60.9354 18.672 59.2954 19.144 57.4074 19.144C55.8074 19.144 54.3594 18.784 53.0634 18.064C51.7834 17.328 50.7674 16.312 50.0154 15.016C49.2794 13.72 48.9114 12.248 48.9114 10.6ZM75.1573 5.512C76.1653 5.512 77.0613 5.736 77.8453 6.184C78.6293 6.616 79.2373 7.264 79.6693 8.128C80.1173 8.976 80.3413 10 80.3413 11.2V19H76.9813V11.656C76.9813 10.6 76.7173 9.792 76.1893 9.232C75.6613 8.656 74.9413 8.368 74.0293 8.368C73.1013 8.368 72.3653 8.656 71.8213 9.232C71.2933 9.792 71.0293 10.6 71.0293 11.656V19H67.6693V1.24H71.0293V7.36C71.4613 6.784 72.0373 6.336 72.7573 6.016C73.4773 5.68 74.2773 5.512 75.1573 5.512ZM84.7605 4.12C84.1685 4.12 83.6725 3.936 83.2725 3.568C82.8885 3.184 82.6965 2.712 82.6965 2.152C82.6965 1.592 82.8885 1.128 83.2725 0.759999C83.6725 0.375999 84.1685 0.183999 84.7605 0.183999C85.3525 0.183999 85.8405 0.375999 86.2245 0.759999C86.6245 1.128 86.8245 1.592 86.8245 2.152C86.8245 2.712 86.6245 3.184 86.2245 3.568C85.8405 3.936 85.3525 4.12 84.7605 4.12ZM86.4165 5.704V19H83.0565V5.704H86.4165ZM93.1682 8.464V14.896C93.1682 15.344 93.2722 15.672 93.4802 15.88C93.7042 16.072 94.0722 16.168 94.5842 16.168H96.1442V19H94.0322C91.2002 19 89.7842 17.624 89.7842 14.872V8.464H88.2002V5.704H89.7842V2.416H93.1682V5.704H96.1442V8.464H93.1682ZM101.441 7.768C101.873 7.064 102.433 6.512 103.121 6.112C103.825 5.712 104.625 5.512 105.521 5.512V9.04H104.633C103.577 9.04 102.777 9.288 102.233 9.784C101.705 10.28 101.441 11.144 101.441 12.376V19H98.0809V5.704H101.441V7.768ZM106.44 12.304C106.44 10.96 106.704 9.768 107.232 8.728C107.776 7.688 108.504 6.888 109.416 6.328C110.344 5.768 111.376 5.488 112.512 5.488C113.504 5.488 114.368 5.688 115.104 6.088C115.856 6.488 116.456 6.992 116.904 7.6V5.704H120.288V19H116.904V17.056C116.472 17.68 115.872 18.2 115.104 18.616C114.352 19.016 113.48 19.216 112.488 19.216C111.368 19.216 110.344 18.928 109.416 18.352C108.504 17.776 107.776 16.968 107.232 15.928C106.704 14.872 106.44 13.664 106.44 12.304ZM116.904 12.352C116.904 11.536 116.744 10.84 116.424 10.264C116.104 9.672 115.672 9.224 115.128 8.92C114.584 8.6 114 8.44 113.376 8.44C112.752 8.44 112.176 8.592 111.648 8.896C111.12 9.2 110.688 9.648 110.352 10.24C110.032 10.816 109.872 11.504 109.872 12.304C109.872 13.104 110.032 13.808 110.352 14.416C110.688 15.008 111.12 15.464 111.648 15.784C112.192 16.104 112.768 16.264 113.376 16.264C114 16.264 114.584 16.112 115.128 15.808C115.672 15.488 116.104 15.04 116.424 14.464C116.744 13.872 116.904 13.168 116.904 12.352ZM132.24 8.464V14.896C132.24 15.344 132.344 15.672 132.552 15.88C132.776 16.072 133.144 16.168 133.656 16.168H135.216V19H133.104C130.272 19 128.856 17.624 128.856 14.872V8.464H127.272V5.704H128.856V2.416H132.24V5.704H135.216V8.464H132.24ZM143.057 19.216C141.777 19.216 140.625 18.936 139.601 18.376C138.577 17.8 137.769 16.992 137.177 15.952C136.601 14.912 136.313 13.712 136.313 12.352C136.313 10.992 136.609 9.792 137.201 8.752C137.809 7.712 138.633 6.912 139.673 6.352C140.713 5.776 141.873 5.488 143.153 5.488C144.433 5.488 145.593 5.776 146.633 6.352C147.673 6.912 148.489 7.712 149.081 8.752C149.689 9.792 149.993 10.992 149.993 12.352C149.993 13.712 149.681 14.912 149.057 15.952C148.449 16.992 147.617 17.8 146.561 18.376C145.521 18.936 144.353 19.216 143.057 19.216ZM143.057 16.288C143.665 16.288 144.233 16.144 144.761 15.856C145.305 15.552 145.737 15.104 146.057 14.512C146.377 13.92 146.537 13.2 146.537 12.352C146.537 11.088 146.201 10.12 145.529 9.448C144.873 8.76 144.065 8.416 143.105 8.416C142.145 8.416 141.337 8.76 140.681 9.448C140.041 10.12 139.721 11.088 139.721 12.352C139.721 13.616 140.033 14.592 140.657 15.28C141.297 15.952 142.097 16.288 143.057 16.288ZM156.4 10.6C156.4 8.952 156.768 7.48 157.504 6.184C158.256 4.872 159.272 3.856 160.552 3.136C161.848 2.4 163.296 2.032 164.896 2.032C166.768 2.032 168.408 2.512 169.816 3.472C171.224 4.432 172.208 5.76 172.768 7.456H168.904C168.52 6.656 167.976 6.056 167.272 5.656C166.584 5.256 165.784 5.056 164.872 5.056C163.896 5.056 163.024 5.288 162.256 5.752C161.504 6.2 160.912 6.84 160.48 7.672C160.064 8.504 159.856 9.48 159.856 10.6C159.856 11.704 160.064 12.68 160.48 13.528C160.912 14.36 161.504 15.008 162.256 15.472C163.024 15.92 163.896 16.144 164.872 16.144C165.784 16.144 166.584 15.944 167.272 15.544C167.976 15.128 168.52 14.52 168.904 13.72H172.768C172.208 15.432 171.224 16.768 169.816 17.728C168.424 18.672 166.784 19.144 164.896 19.144C163.296 19.144 161.848 18.784 160.552 18.064C159.272 17.328 158.256 16.312 157.504 15.016C156.768 13.72 156.4 12.248 156.4 10.6ZM178.518 7.768C178.95 7.064 179.51 6.512 180.198 6.112C180.902 5.712 181.702 5.512 182.598 5.512V9.04H181.71C180.654 9.04 179.854 9.288 179.31 9.784C178.782 10.28 178.518 11.144 178.518 12.376V19H175.158V5.704H178.518V7.768ZM196.741 12.064C196.741 12.544 196.709 12.976 196.645 13.36H186.925C187.005 14.32 187.341 15.072 187.933 15.616C188.525 16.16 189.253 16.432 190.117 16.432C191.365 16.432 192.253 15.896 192.781 14.824H196.405C196.021 16.104 195.285 17.16 194.197 17.992C193.109 18.808 191.773 19.216 190.189 19.216C188.909 19.216 187.757 18.936 186.733 18.376C185.725 17.8 184.933 16.992 184.357 15.952C183.797 14.912 183.517 13.712 183.517 12.352C183.517 10.976 183.797 9.768 184.357 8.728C184.917 7.688 185.701 6.888 186.709 6.328C187.717 5.768 188.877 5.488 190.189 5.488C191.453 5.488 192.581 5.76 193.573 6.304C194.581 6.848 195.357 7.624 195.901 8.632C196.461 9.624 196.741 10.768 196.741 12.064ZM193.261 11.104C193.245 10.24 192.933 9.552 192.325 9.04C191.717 8.512 190.973 8.248 190.093 8.248C189.261 8.248 188.557 8.504 187.981 9.016C187.421 9.512 187.077 10.208 186.949 11.104H193.261ZM197.85 12.304C197.85 10.96 198.114 9.768 198.642 8.728C199.186 7.688 199.914 6.888 200.826 6.328C201.754 5.768 202.786 5.488 203.922 5.488C204.914 5.488 205.778 5.688 206.514 6.088C207.266 6.488 207.866 6.992 208.314 7.6V5.704H211.698V19H208.314V17.056C207.882 17.68 207.282 18.2 206.514 18.616C205.762 19.016 204.89 19.216 203.898 19.216C202.778 19.216 201.754 18.928 200.826 18.352C199.914 17.776 199.186 16.968 198.642 15.928C198.114 14.872 197.85 13.664 197.85 12.304ZM208.314 12.352C208.314 11.536 208.154 10.84 207.834 10.264C207.514 9.672 207.082 9.224 206.538 8.92C205.994 8.6 205.41 8.44 204.786 8.44C204.162 8.44 203.586 8.592 203.058 8.896C202.53 9.2 202.098 9.648 201.762 10.24C201.442 10.816 201.282 11.504 201.282 12.304C201.282 13.104 201.442 13.808 201.762 14.416C202.098 15.008 202.53 15.464 203.058 15.784C203.602 16.104 204.178 16.264 204.786 16.264C205.41 16.264 205.994 16.112 206.538 15.808C207.082 15.488 207.514 15.04 207.834 14.464C208.154 13.872 208.314 13.168 208.314 12.352ZM218.412 8.464V14.896C218.412 15.344 218.516 15.672 218.724 15.88C218.948 16.072 219.316 16.168 219.828 16.168H221.388V19H219.276C216.444 19 215.028 17.624 215.028 14.872V8.464H213.444V5.704H215.028V2.416H218.412V5.704H221.388V8.464H218.412ZM235.684 12.064C235.684 12.544 235.652 12.976 235.588 13.36H225.868C225.948 14.32 226.284 15.072 226.876 15.616C227.468 16.16 228.196 16.432 229.06 16.432C230.308 16.432 231.196 15.896 231.724 14.824H235.348C234.964 16.104 234.228 17.16 233.14 17.992C232.052 18.808 230.716 19.216 229.132 19.216C227.852 19.216 226.7 18.936 225.676 18.376C224.668 17.8 223.876 16.992 223.3 15.952C222.74 14.912 222.46 13.712 222.46 12.352C222.46 10.976 222.74 9.768 223.3 8.728C223.86 7.688 224.644 6.888 225.652 6.328C226.66 5.768 227.82 5.488 229.132 5.488C230.396 5.488 231.524 5.76 232.516 6.304C233.524 6.848 234.3 7.624 234.844 8.632C235.404 9.624 235.684 10.768 235.684 12.064ZM232.204 11.104C232.188 10.24 231.876 9.552 231.268 9.04C230.66 8.512 229.916 8.248 229.036 8.248C228.204 8.248 227.5 8.504 226.924 9.016C226.364 9.512 226.02 10.208 225.892 11.104H232.204ZM70.0082 39.808H63.3362L62.2322 43H58.7042L64.7282 26.224H68.6402L74.6642 43H71.1122L70.0082 39.808ZM69.0962 37.12L66.6722 30.112L64.2482 37.12H69.0962ZM83.8038 29.512C85.3878 29.512 86.6678 30.016 87.6438 31.024C88.6198 32.016 89.1078 33.408 89.1078 35.2V43H85.7478V35.656C85.7478 34.6 85.4838 33.792 84.9558 33.232C84.4278 32.656 83.7078 32.368 82.7958 32.368C81.8678 32.368 81.1318 32.656 80.5878 33.232C80.0598 33.792 79.7958 34.6 79.7958 35.656V43H76.4358V29.704H79.7958V31.36C80.2438 30.784 80.8118 30.336 81.4998 30.016C82.2038 29.68 82.9718 29.512 83.8038 29.512ZM104.543 29.704L96.311 49.288H92.735L95.615 42.664L90.287 29.704H94.055L97.487 38.992L100.967 29.704H104.543ZM123.329 31.432C123.329 32.328 123.113 33.168 122.681 33.952C122.265 34.736 121.601 35.368 120.689 35.848C119.793 36.328 118.657 36.568 117.281 36.568H114.473V43H111.113V26.248H117.281C118.577 26.248 119.681 26.472 120.593 26.92C121.505 27.368 122.185 27.984 122.633 28.768C123.097 29.552 123.329 30.44 123.329 31.432ZM117.137 33.856C118.065 33.856 118.753 33.648 119.201 33.232C119.649 32.8 119.873 32.2 119.873 31.432C119.873 29.8 118.961 28.984 117.137 28.984H114.473V33.856H117.137ZM132.723 29.512C133.731 29.512 134.627 29.736 135.411 30.184C136.195 30.616 136.803 31.264 137.235 32.128C137.683 32.976 137.907 34 137.907 35.2V43H134.547V35.656C134.547 34.6 134.283 33.792 133.755 33.232C133.227 32.656 132.507 32.368 131.595 32.368C130.667 32.368 129.931 32.656 129.387 33.232C128.859 33.792 128.595 34.6 128.595 35.656V43H125.235V25.24H128.595V31.36C129.027 30.784 129.603 30.336 130.323 30.016C131.043 29.68 131.843 29.512 132.723 29.512ZM146.526 43.216C145.246 43.216 144.094 42.936 143.07 42.376C142.046 41.8 141.238 40.992 140.646 39.952C140.07 38.912 139.782 37.712 139.782 36.352C139.782 34.992 140.078 33.792 140.67 32.752C141.278 31.712 142.102 30.912 143.142 30.352C144.182 29.776 145.342 29.488 146.622 29.488C147.902 29.488 149.062 29.776 150.102 30.352C151.142 30.912 151.958 31.712 152.55 32.752C153.158 33.792 153.462 34.992 153.462 36.352C153.462 37.712 153.15 38.912 152.526 39.952C151.918 40.992 151.086 41.8 150.03 42.376C148.99 42.936 147.822 43.216 146.526 43.216ZM146.526 40.288C147.134 40.288 147.702 40.144 148.23 39.856C148.774 39.552 149.206 39.104 149.526 38.512C149.846 37.92 150.006 37.2 150.006 36.352C150.006 35.088 149.67 34.12 148.998 33.448C148.342 32.76 147.534 32.416 146.574 32.416C145.614 32.416 144.806 32.76 144.15 33.448C143.51 34.12 143.19 35.088 143.19 36.352C143.19 37.616 143.502 38.592 144.126 39.28C144.766 39.952 145.566 40.288 146.526 40.288ZM159.358 32.464V38.896C159.358 39.344 159.462 39.672 159.67 39.88C159.894 40.072 160.262 40.168 160.774 40.168H162.334V43H160.222C157.39 43 155.974 41.624 155.974 38.872V32.464H154.39V29.704H155.974V26.416H159.358V29.704H162.334V32.464H159.358ZM170.175 43.216C168.895 43.216 167.743 42.936 166.719 42.376C165.695 41.8 164.887 40.992 164.295 39.952C163.719 38.912 163.431 37.712 163.431 36.352C163.431 34.992 163.727 33.792 164.319 32.752C164.927 31.712 165.751 30.912 166.791 30.352C167.831 29.776 168.991 29.488 170.271 29.488C171.551 29.488 172.711 29.776 173.751 30.352C174.791 30.912 175.607 31.712 176.199 32.752C176.807 33.792 177.111 34.992 177.111 36.352C177.111 37.712 176.799 38.912 176.175 39.952C175.567 40.992 174.735 41.8 173.679 42.376C172.639 42.936 171.471 43.216 170.175 43.216ZM170.175 40.288C170.783 40.288 171.351 40.144 171.879 39.856C172.423 39.552 172.855 39.104 173.175 38.512C173.495 37.92 173.655 37.2 173.655 36.352C173.655 35.088 173.319 34.12 172.647 33.448C171.991 32.76 171.183 32.416 170.223 32.416C169.263 32.416 168.455 32.76 167.799 33.448C167.159 34.12 166.839 35.088 166.839 36.352C166.839 37.616 167.151 38.592 167.775 39.28C168.415 39.952 169.215 40.288 170.175 40.288Z" fill="url(#paint0_linear_761_9437)"/>
<defs>
<linearGradient id="paint0_linear_761_9437" x1="-2" y1="-1" x2="20.3199" y2="100.071" gradientUnits="userSpaceOnUse">
<stop stop-color="#F9F5D0"/>
<stop offset="1" stop-color="#BB8197"/>
</linearGradient>
</defs>
</svg>
