\<svg width="205" height="50" viewBox="0 0 205 50" fill="none" xmlns="http://www.w3.org/2000/svg">
<path d="M11.928 15.808H5.256L4.152 19H0.624L6.648 2.224H10.56L16.584 19H13.032L11.928 15.808ZM11.016 13.12L8.592 6.112L6.168 13.12H11.016ZM23.4437 19.216C22.3557 19.216 21.3797 19.024 20.5157 18.64C19.6517 18.24 18.9637 17.704 18.4517 17.032C17.9557 16.36 17.6837 15.616 17.6357 14.8H21.0197C21.0837 15.312 21.3317 15.736 21.7637 16.072C22.2117 16.408 22.7637 16.576 23.4197 16.576C24.0597 16.576 24.5557 16.448 24.9077 16.192C25.2757 15.936 25.4597 15.608 25.4597 15.208C25.4597 14.776 25.2357 14.456 24.7877 14.248C24.3557 14.024 23.6597 13.784 22.6997 13.528C21.7077 13.288 20.8917 13.04 20.2517 12.784C19.6277 12.528 19.0837 12.136 18.6197 11.608C18.1717 11.08 17.9477 10.368 17.9477 9.472C17.9477 8.736 18.1557 8.064 18.5717 7.456C19.0037 6.848 19.6117 6.368 20.3957 6.016C21.1957 5.664 22.1317 5.488 23.2037 5.488C24.7877 5.488 26.0517 5.888 26.9957 6.688C27.9397 7.472 28.4597 8.536 28.5557 9.88H25.3397C25.2917 9.352 25.0677 8.936 24.6677 8.632C24.2837 8.312 23.7637 8.152 23.1077 8.152C22.4997 8.152 22.0277 8.264 21.6917 8.488C21.3717 8.712 21.2117 9.024 21.2117 9.424C21.2117 9.872 21.4357 10.216 21.8837 10.456C22.3317 10.68 23.0277 10.912 23.9717 11.152C24.9317 11.392 25.7237 11.64 26.3477 11.896C26.9717 12.152 27.5077 12.552 27.9557 13.096C28.4197 13.624 28.6597 14.328 28.6757 15.208C28.6757 15.976 28.4597 16.664 28.0277 17.272C27.6117 17.88 27.0037 18.36 26.2037 18.712C25.4197 19.048 24.4997 19.216 23.4437 19.216ZM38.8258 19L34.3138 13.336V19H30.9538V1.24H34.3138V11.344L38.7778 5.704H43.1458L37.2898 12.376L43.1938 19H38.8258ZM48.9122 10.6C48.9122 8.952 49.2802 7.48 50.0162 6.184C50.7682 4.872 51.7842 3.856 53.0642 3.136C54.3602 2.4 55.8082 2.032 57.4082 2.032C59.2802 2.032 60.9202 2.512 62.3282 3.472C63.7362 4.432 64.7202 5.76 65.2802 7.456H61.4162C61.0322 6.656 60.4882 6.056 59.7842 5.656C59.0962 5.256 58.2962 5.056 57.3842 5.056C56.4082 5.056 55.5362 5.288 54.7682 5.752C54.0162 6.2 53.4242 6.84 52.9922 7.672C52.5762 8.504 52.3682 9.48 52.3682 10.6C52.3682 11.704 52.5762 12.68 52.9922 13.528C53.4242 14.36 54.0162 15.008 54.7682 15.472C55.5362 15.92 56.4082 16.144 57.3842 16.144C58.2962 16.144 59.0962 15.944 59.7842 15.544C60.4882 15.128 61.0322 14.52 61.4162 13.72H65.2802C64.7202 15.432 63.7362 16.768 62.3282 17.728C60.9362 18.672 59.2962 19.144 57.4082 19.144C55.8082 19.144 54.3602 18.784 53.0642 18.064C51.7842 17.328 50.7682 16.312 50.0162 15.016C49.2802 13.72 48.9122 12.248 48.9122 10.6ZM75.1581 5.512C76.1661 5.512 77.0621 5.736 77.8461 6.184C78.6301 6.616 79.2381 7.264 79.6701 8.128C80.1181 8.976 80.3421 10 80.3421 11.2V19H76.9821V11.656C76.9821 10.6 76.7181 9.792 76.1901 9.232C75.6621 8.656 74.9421 8.368 74.0301 8.368C73.1021 8.368 72.3661 8.656 71.8221 9.232C71.2941 9.792 71.0301 10.6 71.0301 11.656V19H67.6701V1.24H71.0301V7.36C71.4621 6.784 72.0381 6.336 72.7581 6.016C73.4781 5.68 74.2781 5.512 75.1581 5.512ZM84.7613 4.12C84.1693 4.12 83.6733 3.936 83.2733 3.568C82.8893 3.184 82.6973 2.712 82.6973 2.152C82.6973 1.592 82.8893 1.128 83.2733 0.759999C83.6733 0.375999 84.1693 0.183999 84.7613 0.183999C85.3533 0.183999 85.8413 0.375999 86.2253 0.759999C86.6253 1.128 86.8253 1.592 86.8253 2.152C86.8253 2.712 86.6253 3.184 86.2253 3.568C85.8413 3.936 85.3533 4.12 84.7613 4.12ZM86.4173 5.704V19H83.0573V5.704H86.4173ZM93.1689 8.464V14.896C93.1689 15.344 93.2729 15.672 93.4809 15.88C93.7049 16.072 94.0729 16.168 94.5849 16.168H96.1449V19H94.0329C91.2009 19 89.7849 17.624 89.7849 14.872V8.464H88.2009V5.704H89.7849V2.416H93.1689V5.704H96.1449V8.464H93.1689ZM101.442 7.768C101.874 7.064 102.434 6.512 103.122 6.112C103.826 5.712 104.626 5.512 105.522 5.512V9.04H104.634C103.578 9.04 102.778 9.288 102.234 9.784C101.706 10.28 101.442 11.144 101.442 12.376V19H98.0816V5.704H101.442V7.768ZM106.441 12.304C106.441 10.96 106.705 9.768 107.233 8.728C107.777 7.688 108.505 6.888 109.417 6.328C110.345 5.768 111.377 5.488 112.513 5.488C113.505 5.488 114.369 5.688 115.105 6.088C115.857 6.488 116.457 6.992 116.905 7.6V5.704H120.289V19H116.905V17.056C116.473 17.68 115.873 18.2 115.105 18.616C114.353 19.016 113.481 19.216 112.489 19.216C111.369 19.216 110.345 18.928 109.417 18.352C108.505 17.776 107.777 16.968 107.233 15.928C106.705 14.872 106.441 13.664 106.441 12.304ZM116.905 12.352C116.905 11.536 116.745 10.84 116.425 10.264C116.105 9.672 115.673 9.224 115.129 8.92C114.585 8.6 114.001 8.44 113.377 8.44C112.753 8.44 112.177 8.592 111.649 8.896C111.121 9.2 110.689 9.648 110.353 10.24C110.033 10.816 109.873 11.504 109.873 12.304C109.873 13.104 110.033 13.808 110.353 14.416C110.689 15.008 111.121 15.464 111.649 15.784C112.193 16.104 112.769 16.264 113.377 16.264C114.001 16.264 114.585 16.112 115.129 15.808C115.673 15.488 116.105 15.04 116.425 14.464C116.745 13.872 116.905 13.168 116.905 12.352ZM132.241 8.464V14.896C132.241 15.344 132.345 15.672 132.553 15.88C132.777 16.072 133.145 16.168 133.657 16.168H135.217V19H133.105C130.273 19 128.857 17.624 128.857 14.872V8.464H127.273V5.704H128.857V2.416H132.241V5.704H135.217V8.464H132.241ZM143.058 19.216C141.778 19.216 140.626 18.936 139.602 18.376C138.578 17.8 137.77 16.992 137.178 15.952C136.602 14.912 136.314 13.712 136.314 12.352C136.314 10.992 136.61 9.792 137.202 8.752C137.81 7.712 138.634 6.912 139.674 6.352C140.714 5.776 141.874 5.488 143.154 5.488C144.434 5.488 145.594 5.776 146.634 6.352C147.674 6.912 148.49 7.712 149.082 8.752C149.69 9.792 149.994 10.992 149.994 12.352C149.994 13.712 149.682 14.912 149.058 15.952C148.45 16.992 147.618 17.8 146.562 18.376C145.522 18.936 144.354 19.216 143.058 19.216ZM143.058 16.288C143.666 16.288 144.234 16.144 144.762 15.856C145.306 15.552 145.738 15.104 146.058 14.512C146.378 13.92 146.538 13.2 146.538 12.352C146.538 11.088 146.202 10.12 145.53 9.448C144.874 8.76 144.066 8.416 143.106 8.416C142.146 8.416 141.338 8.76 140.682 9.448C140.042 10.12 139.722 11.088 139.722 12.352C139.722 13.616 140.034 14.592 140.658 15.28C141.298 15.952 142.098 16.288 143.058 16.288ZM0.84 34.6C0.84 32.952 1.208 31.48 1.944 30.184C2.696 28.872 3.712 27.856 4.992 27.136C6.288 26.4 7.736 26.032 9.336 26.032C11.208 26.032 12.848 26.512 14.256 27.472C15.664 28.432 16.648 29.76 17.208 31.456H13.344C12.96 30.656 12.416 30.056 11.712 29.656C11.024 29.256 10.224 29.056 9.312 29.056C8.336 29.056 7.464 29.288 6.696 29.752C5.944 30.2 5.352 30.84 4.92 31.672C4.504 32.504 4.296 33.48 4.296 34.6C4.296 35.704 4.504 36.68 4.92 37.528C5.352 38.36 5.944 39.008 6.696 39.472C7.464 39.92 8.336 40.144 9.312 40.144C10.224 40.144 11.024 39.944 11.712 39.544C12.416 39.128 12.96 38.52 13.344 37.72H17.208C16.648 39.432 15.664 40.768 14.256 41.728C12.864 42.672 11.224 43.144 9.336 43.144C7.736 43.144 6.288 42.784 4.992 42.064C3.712 41.328 2.696 40.312 1.944 39.016C1.208 37.72 0.84 36.248 0.84 34.6ZM22.9579 31.768C23.3899 31.064 23.9499 30.512 24.6379 30.112C25.3419 29.712 26.1419 29.512 27.0379 29.512V33.04H26.1499C25.0939 33.04 24.2939 33.288 23.7499 33.784C23.2219 34.28 22.9579 35.144 22.9579 36.376V43H19.5979V29.704H22.9579V31.768ZM41.181 36.064C41.181 36.544 41.149 36.976 41.085 37.36H31.365C31.445 38.32 31.781 39.072 32.373 39.616C32.965 40.16 33.693 40.432 34.557 40.432C35.805 40.432 36.693 39.896 37.221 38.824H40.845C40.461 40.104 39.725 41.16 38.637 41.992C37.549 42.808 36.213 43.216 34.629 43.216C33.349 43.216 32.197 42.936 31.173 42.376C30.165 41.8 29.373 40.992 28.797 39.952C28.237 38.912 27.957 37.712 27.957 36.352C27.957 34.976 28.237 33.768 28.797 32.728C29.357 31.688 30.141 30.888 31.149 30.328C32.157 29.768 33.317 29.488 34.629 29.488C35.893 29.488 37.021 29.76 38.013 30.304C39.021 30.848 39.797 31.624 40.341 32.632C40.901 33.624 41.181 34.768 41.181 36.064ZM37.701 35.104C37.685 34.24 37.373 33.552 36.765 33.04C36.157 32.512 35.413 32.248 34.533 32.248C33.701 32.248 32.997 32.504 32.421 33.016C31.861 33.512 31.517 34.208 31.389 35.104H37.701ZM42.2895 36.304C42.2895 34.96 42.5535 33.768 43.0815 32.728C43.6255 31.688 44.3535 30.888 45.2655 30.328C46.1935 29.768 47.2255 29.488 48.3615 29.488C49.3535 29.488 50.2175 29.688 50.9535 30.088C51.7055 30.488 52.3055 30.992 52.7535 31.6V29.704H56.1375V43H52.7535V41.056C52.3215 41.68 51.7215 42.2 50.9535 42.616C50.2015 43.016 49.3295 43.216 48.3375 43.216C47.2175 43.216 46.1935 42.928 45.2655 42.352C44.3535 41.776 43.6255 40.968 43.0815 39.928C42.5535 38.872 42.2895 37.664 42.2895 36.304ZM52.7535 36.352C52.7535 35.536 52.5935 34.84 52.2735 34.264C51.9535 33.672 51.5215 33.224 50.9775 32.92C50.4335 32.6 49.8495 32.44 49.2255 32.44C48.6015 32.44 48.0255 32.592 47.4975 32.896C46.9695 33.2 46.5375 33.648 46.2015 34.24C45.8815 34.816 45.7215 35.504 45.7215 36.304C45.7215 37.104 45.8815 37.808 46.2015 38.416C46.5375 39.008 46.9695 39.464 47.4975 39.784C48.0415 40.104 48.6175 40.264 49.2255 40.264C49.8495 40.264 50.4335 40.112 50.9775 39.808C51.5215 39.488 51.9535 39.04 52.2735 38.464C52.5935 37.872 52.7535 37.168 52.7535 36.352ZM62.8511 32.464V38.896C62.8511 39.344 62.9551 39.672 63.1631 39.88C63.3871 40.072 63.7551 40.168 64.2671 40.168H65.8271V43H63.7151C60.8831 43 59.4671 41.624 59.4671 38.872V32.464H57.8831V29.704H59.4671V26.416H62.8511V29.704H65.8271V32.464H62.8511ZM80.1238 36.064C80.1238 36.544 80.0918 36.976 80.0278 37.36H70.3078C70.3878 38.32 70.7238 39.072 71.3158 39.616C71.9078 40.16 72.6358 40.432 73.4998 40.432C74.7478 40.432 75.6358 39.896 76.1638 38.824H79.7878C79.4038 40.104 78.6678 41.16 77.5798 41.992C76.4918 42.808 75.1558 43.216 73.5718 43.216C72.2918 43.216 71.1398 42.936 70.1158 42.376C69.1078 41.8 68.3158 40.992 67.7398 39.952C67.1798 38.912 66.8998 37.712 66.8998 36.352C66.8998 34.976 67.1798 33.768 67.7398 32.728C68.2998 31.688 69.0838 30.888 70.0918 30.328C71.0998 29.768 72.2598 29.488 73.5718 29.488C74.8358 29.488 75.9638 29.76 76.9558 30.304C77.9638 30.848 78.7398 31.624 79.2838 32.632C79.8438 33.624 80.1238 34.768 80.1238 36.064ZM76.6438 35.104C76.6278 34.24 76.3158 33.552 75.7078 33.04C75.0998 32.512 74.3558 32.248 73.4758 32.248C72.6438 32.248 71.9398 32.504 71.3638 33.016C70.8038 33.512 70.4598 34.208 70.3318 35.104H76.6438ZM97.6071 39.808H90.9351L89.8311 43H86.3031L92.3271 26.224H96.2391L102.263 43H98.7111L97.6071 39.808ZM96.6951 37.12L94.2711 30.112L91.8471 37.12H96.6951ZM111.403 29.512C112.987 29.512 114.267 30.016 115.243 31.024C116.219 32.016 116.707 33.408 116.707 35.2V43H113.347V35.656C113.347 34.6 113.083 33.792 112.555 33.232C112.027 32.656 111.307 32.368 110.395 32.368C109.467 32.368 108.731 32.656 108.187 33.232C107.659 33.792 107.395 34.6 107.395 35.656V43H104.035V29.704H107.395V31.36C107.843 30.784 108.411 30.336 109.099 30.016C109.803 29.68 110.571 29.512 111.403 29.512ZM132.142 29.704L123.91 49.288H120.334L123.214 42.664L117.886 29.704H121.654L125.086 38.992L128.566 29.704H132.142ZM150.928 31.432C150.928 32.328 150.712 33.168 150.28 33.952C149.864 34.736 149.2 35.368 148.288 35.848C147.392 36.328 146.256 36.568 144.88 36.568H142.072V43H138.712V26.248H144.88C146.176 26.248 147.28 26.472 148.192 26.92C149.104 27.368 149.784 27.984 150.232 28.768C150.696 29.552 150.928 30.44 150.928 31.432ZM144.736 33.856C145.664 33.856 146.352 33.648 146.8 33.232C147.248 32.8 147.472 32.2 147.472 31.432C147.472 29.8 146.56 28.984 144.736 28.984H142.072V33.856H144.736ZM160.322 29.512C161.33 29.512 162.226 29.736 163.01 30.184C163.794 30.616 164.402 31.264 164.834 32.128C165.282 32.976 165.506 34 165.506 35.2V43H162.146V35.656C162.146 34.6 161.882 33.792 161.354 33.232C160.826 32.656 160.106 32.368 159.194 32.368C158.266 32.368 157.53 32.656 156.986 33.232C156.458 33.792 156.194 34.6 156.194 35.656V43H152.834V25.24H156.194V31.36C156.626 30.784 157.202 30.336 157.922 30.016C158.642 29.68 159.442 29.512 160.322 29.512ZM174.125 43.216C172.845 43.216 171.693 42.936 170.669 42.376C169.645 41.8 168.837 40.992 168.245 39.952C167.669 38.912 167.381 37.712 167.381 36.352C167.381 34.992 167.677 33.792 168.269 32.752C168.877 31.712 169.701 30.912 170.741 30.352C171.781 29.776 172.941 29.488 174.221 29.488C175.501 29.488 176.661 29.776 177.701 30.352C178.741 30.912 179.557 31.712 180.149 32.752C180.757 33.792 181.061 34.992 181.061 36.352C181.061 37.712 180.749 38.912 180.125 39.952C179.517 40.992 178.685 41.8 177.629 42.376C176.589 42.936 175.421 43.216 174.125 43.216ZM174.125 40.288C174.733 40.288 175.301 40.144 175.829 39.856C176.373 39.552 176.805 39.104 177.125 38.512C177.445 37.92 177.605 37.2 177.605 36.352C177.605 35.088 177.269 34.12 176.597 33.448C175.941 32.76 175.133 32.416 174.173 32.416C173.213 32.416 172.405 32.76 171.749 33.448C171.109 34.12 170.789 35.088 170.789 36.352C170.789 37.616 171.101 38.592 171.725 39.28C172.365 39.952 173.165 40.288 174.125 40.288ZM186.957 32.464V38.896C186.957 39.344 187.061 39.672 187.269 39.88C187.493 40.072 187.861 40.168 188.373 40.168H189.933V43H187.821C184.989 43 183.573 41.624 183.573 38.872V32.464H181.989V29.704H183.573V26.416H186.957V29.704H189.933V32.464H186.957ZM197.774 43.216C196.494 43.216 195.342 42.936 194.318 42.376C193.294 41.8 192.486 40.992 191.894 39.952C191.318 38.912 191.03 37.712 191.03 36.352C191.03 34.992 191.326 33.792 191.918 32.752C192.526 31.712 193.35 30.912 194.39 30.352C195.43 29.776 196.59 29.488 197.87 29.488C199.15 29.488 200.31 29.776 201.35 30.352C202.39 30.912 203.206 31.712 203.798 32.752C204.406 33.792 204.71 34.992 204.71 36.352C204.71 37.712 204.398 38.912 203.774 39.952C203.166 40.992 202.334 41.8 201.278 42.376C200.238 42.936 199.07 43.216 197.774 43.216ZM197.774 40.288C198.382 40.288 198.95 40.144 199.478 39.856C200.022 39.552 200.454 39.104 200.774 38.512C201.094 37.92 201.254 37.2 201.254 36.352C201.254 35.088 200.918 34.12 200.246 33.448C199.59 32.76 198.782 32.416 197.822 32.416C196.862 32.416 196.054 32.76 195.398 33.448C194.758 34.12 194.438 35.088 194.438 36.352C194.438 37.616 194.75 38.592 195.374 39.28C196.014 39.952 196.814 40.288 197.774 40.288Z" fill="url(#paint0_linear_13_1230)"/>
<defs>
<linearGradient id="paint0_linear_13_1230" x1="0" y1="-1" x2="19.3974" y2="86.7102" gradientUnits="userSpaceOnUse">
<stop stop-color="#736ED7"/>
<stop offset="1" stop-color="#7C73A4"/>
</linearGradient>
</defs>
</svg>
