<svg width="212" height="28" viewBox="0 0 212 28" fill="none" xmlns="http://www.w3.org/2000/svg">
<path d="M36.0902 1.872L29.0702 27H23.1302L18.4142 9.108L13.4822 27L7.57821 27.036L0.810211 1.872H6.21021L10.6382 21.384L15.7502 1.872H21.3662L26.1902 21.276L30.6542 1.872H36.0902ZM57.2011 16.596C57.2011 17.316 57.1531 17.964 57.0571 18.54H42.4771C42.5971 19.98 43.1011 21.108 43.9891 21.924C44.8771 22.74 45.9691 23.148 47.2651 23.148C49.1371 23.148 50.4691 22.344 51.2611 20.736H56.6971C56.1211 22.656 55.0171 24.24 53.3851 25.488C51.7531 26.712 49.7491 27.324 47.3731 27.324C45.4531 27.324 43.7251 26.904 42.1891 26.064C40.6771 25.2 39.4891 23.988 38.6251 22.428C37.7851 20.868 37.3651 19.068 37.3651 17.028C37.3651 14.964 37.7851 13.152 38.6251 11.592C39.4651 10.032 40.6411 8.832 42.1531 7.992C43.6651 7.152 45.4051 6.732 47.3731 6.732C49.2691 6.732 50.9611 7.14 52.4491 7.956C53.9611 8.772 55.1251 9.936 55.9411 11.448C56.7811 12.936 57.2011 14.652 57.2011 16.596ZM51.9811 15.156C51.9571 13.86 51.4891 12.828 50.5771 12.06C49.6651 11.268 48.5491 10.872 47.2291 10.872C45.9811 10.872 44.9251 11.256 44.0611 12.024C43.2211 12.768 42.7051 13.812 42.5131 15.156H51.9811ZM65.1999 0.36V27H60.1599V0.36H65.1999ZM68.1634 17.028C68.1634 14.964 68.5834 13.164 69.4234 11.628C70.2634 10.068 71.4274 8.868 72.9154 8.028C74.4034 7.164 76.1074 6.732 78.0274 6.732C80.4994 6.732 82.5394 7.356 84.1474 8.604C85.7794 9.828 86.8714 11.556 87.4234 13.788H81.9874C81.6994 12.924 81.2074 12.252 80.5114 11.772C79.8394 11.268 78.9994 11.016 77.9914 11.016C76.5514 11.016 75.4114 11.544 74.5714 12.6C73.7314 13.632 73.3114 15.108 73.3114 17.028C73.3114 18.924 73.7314 20.4 74.5714 21.456C75.4114 22.488 76.5514 23.004 77.9914 23.004C80.0314 23.004 81.3634 22.092 81.9874 20.268H87.4234C86.8714 22.428 85.7794 24.144 84.1474 25.416C82.5154 26.688 80.4754 27.324 78.0274 27.324C76.1074 27.324 74.4034 26.904 72.9154 26.064C71.4274 25.2 70.2634 24 69.4234 22.464C68.5834 20.904 68.1634 19.092 68.1634 17.028ZM99.2517 27.324C97.3317 27.324 95.6037 26.904 94.0677 26.064C92.5317 25.2 91.3197 23.988 90.4317 22.428C89.5677 20.868 89.1357 19.068 89.1357 17.028C89.1357 14.988 89.5797 13.188 90.4677 11.628C91.3797 10.068 92.6157 8.868 94.1757 8.028C95.7357 7.164 97.4757 6.732 99.3957 6.732C101.316 6.732 103.056 7.164 104.616 8.028C106.176 8.868 107.4 10.068 108.288 11.628C109.2 13.188 109.656 14.988 109.656 17.028C109.656 19.068 109.188 20.868 108.252 22.428C107.34 23.988 106.092 25.2 104.508 26.064C102.948 26.904 101.196 27.324 99.2517 27.324ZM99.2517 22.932C100.164 22.932 101.016 22.716 101.808 22.284C102.624 21.828 103.272 21.156 103.752 20.268C104.232 19.38 104.472 18.3 104.472 17.028C104.472 15.132 103.968 13.68 102.96 12.672C101.976 11.64 100.764 11.124 99.3237 11.124C97.8837 11.124 96.6717 11.64 95.6877 12.672C94.7277 13.68 94.2477 15.132 94.2477 17.028C94.2477 18.924 94.7157 20.388 95.6517 21.42C96.6117 22.428 97.8117 22.932 99.2517 22.932ZM137.401 6.768C139.849 6.768 141.817 7.524 143.305 9.036C144.817 10.524 145.573 12.612 145.573 15.3V27H140.533V15.984C140.533 14.424 140.137 13.236 139.345 12.42C138.553 11.58 137.473 11.16 136.105 11.16C134.737 11.16 133.645 11.58 132.829 12.42C132.037 13.236 131.641 14.424 131.641 15.984V27H126.601V15.984C126.601 14.424 126.205 13.236 125.413 12.42C124.621 11.58 123.541 11.16 122.173 11.16C120.781 11.16 119.677 11.58 118.861 12.42C118.069 13.236 117.673 14.424 117.673 15.984V27H112.633V7.056H117.673V9.468C118.321 8.628 119.149 7.968 120.157 7.488C121.189 7.008 122.317 6.768 123.541 6.768C125.101 6.768 126.493 7.104 127.717 7.776C128.941 8.424 129.889 9.36 130.561 10.584C131.209 9.432 132.145 8.508 133.369 7.812C134.617 7.116 135.961 6.768 137.401 6.768ZM168.175 16.596C168.175 17.316 168.127 17.964 168.031 18.54H153.451C153.571 19.98 154.075 21.108 154.963 21.924C155.851 22.74 156.943 23.148 158.239 23.148C160.111 23.148 161.443 22.344 162.235 20.736H167.671C167.095 22.656 165.991 24.24 164.359 25.488C162.727 26.712 160.723 27.324 158.347 27.324C156.427 27.324 154.699 26.904 153.163 26.064C151.651 25.2 150.463 23.988 149.599 22.428C148.759 20.868 148.339 19.068 148.339 17.028C148.339 14.964 148.759 13.152 149.599 11.592C150.439 10.032 151.615 8.832 153.127 7.992C154.639 7.152 156.379 6.732 158.347 6.732C160.243 6.732 161.935 7.14 163.423 7.956C164.935 8.772 166.099 9.936 166.915 11.448C167.755 12.936 168.175 14.652 168.175 16.596ZM162.955 15.156C162.931 13.86 162.463 12.828 161.551 12.06C160.639 11.268 159.523 10.872 158.203 10.872C156.955 10.872 155.899 11.256 155.035 12.024C154.195 12.768 153.679 13.812 153.487 15.156H162.955ZM184.86 11.196V20.844C184.86 21.516 185.016 22.008 185.328 22.32C185.664 22.608 186.216 22.752 186.984 22.752H189.324V27H186.156C181.908 27 179.784 24.936 179.784 20.808V11.196H177.408V7.056H179.784V2.124H184.86V7.056H189.324V11.196H184.86ZM201.085 27.324C199.165 27.324 197.437 26.904 195.901 26.064C194.365 25.2 193.153 23.988 192.265 22.428C191.401 20.868 190.969 19.068 190.969 17.028C190.969 14.988 191.413 13.188 192.301 11.628C193.213 10.068 194.449 8.868 196.009 8.028C197.569 7.164 199.309 6.732 201.229 6.732C203.149 6.732 204.889 7.164 206.449 8.028C208.009 8.868 209.233 10.068 210.121 11.628C211.033 13.188 211.489 14.988 211.489 17.028C211.489 19.068 211.021 20.868 210.085 22.428C209.173 23.988 207.925 25.2 206.341 26.064C204.781 26.904 203.029 27.324 201.085 27.324ZM201.085 22.932C201.997 22.932 202.849 22.716 203.641 22.284C204.457 21.828 205.105 21.156 205.585 20.268C206.065 19.38 206.305 18.3 206.305 17.028C206.305 15.132 205.801 13.68 204.793 12.672C203.809 11.64 202.597 11.124 201.157 11.124C199.717 11.124 198.505 11.64 197.521 12.672C196.561 13.68 196.081 15.132 196.081 17.028C196.081 18.924 196.549 20.388 197.485 21.42C198.445 22.428 199.645 22.932 201.085 22.932Z" fill="url(#paint0_linear_761_4265)"/>
<defs>
<linearGradient id="paint0_linear_761_4265" x1="-83.9998" y1="-4" x2="-60.4181" y2="127.78" gradientUnits="userSpaceOnUse">
<stop stop-color="#A2C5A5"/>
<stop offset="1" stop-color="#D1B4E0"/>
</linearGradient>
</defs>
</svg>
